<svg id="Nav_Icon" data-name="Nav Icon" xmlns="http://www.w3.org/2000/svg" width="23" height="20" viewBox="0 0 23 20">
  <g id="Icons_Outline_Home" data-name="Icons/Outline/Home" transform="translate(7 -44)">
    <path id="Icon" d="M23,20H0V10.8l.415-.208A12.488,12.488,0,0,1,5.964,9.286h.243a12.661,12.661,0,0,1,5.248,1.146A12.685,12.685,0,0,1,16.7,9.286h.248a12.427,12.427,0,0,1,5.639,1.357l.409.221V20Zm-6.191-9.137h0a11.669,11.669,0,0,0-4.513.9v6.671h9.189v-6.6a11.653,11.653,0,0,0-4.676-.972Zm-10.781,0a11.163,11.163,0,0,0-4.514.947v6.628H10.7V11.81a11.154,11.154,0,0,0-4.512-.947H6.028Zm11.22-2.292a4.286,4.286,0,1,1,4.315-4.286A4.3,4.3,0,0,1,17.248,8.572Zm0-7.178A2.91,2.91,0,0,0,14.34,4.285a2.7,2.7,0,0,0,1.406,2.5,3.069,3.069,0,0,0,3.007,0,2.7,2.7,0,0,0,1.408-2.5A2.912,2.912,0,0,0,17.248,1.394ZM5.749,8.572a4.286,4.286,0,1,1,4.313-4.286A4.3,4.3,0,0,1,5.749,8.572Zm0-7.178A2.892,2.892,0,1,0,8.658,4.285,2.91,2.91,0,0,0,5.749,1.394Z" transform="translate(-7 44)" fill="#7d7d7d"/>
  </g>
</svg>
